{"title":"Donnie Brasco-720p MP4 AAC x264 Extended Cut BRRip 1997-CC","uid":7891952,"size":4068702561,"categoryP":"video","categoryS":"hd___movies","magnet":"?xt=urn:btih:2ba2cf6cdfa920721f5acc0b72bb309ecd77a2c5&amp;dn=Donnie+Brasco-720p+MP4+AAC+x264+Extended+Cut+BRRip+1997-CC&amp;tr=udp%3A%2F%2Ftracker.openbittorrent.com%3A80&amp;tr=udp%3A%2F%2Fopen.demonii.com%3A1337&amp;tr=udp%3A%2F%2Ftracker.coppersurfer.tk%3A6969&amp;tr=udp%3A%2F%2Fexodus.desync.com%3A6969","seeders":2,"leechers":1,"uploader":"Caveman44","files":-1,"time":1354745191,"description":" &lt;a href=&quot;http://www.imdb.com/title/tt0119008/&quot; rel=&quot;nofollow&quot; target=&quot;_NEW&quot;&gt;http://www.imdb.com/title/tt0119008/&lt;/a&gt;\n\nSource: Donnie.Brasco.(Extended.Cut).1997.Blu-ray.720p.x264.DTS.DD20.DualAudio-MySiLU Thanks!\n\nSubs: Arabic, Brazilian, Croatian, Czech, Danish, Dutch, English, Finnish, French, Greek, Hebrew, Hungarian, Indonesian, Persian, Polish, Portuguese, Romanian, Servian, Slovenian, Spanish, Swedish, Turkish and Vietnamese.\n\nSample and Screens included.\n\nGeneral\nComplete name                            : Donnie Brasco-720p MP4 AAC x264 Extended Cut BRRip 1997-CC.mp4\nFormat                                   : MPEG-4\nFormat profile                           : Base Media\nCodec ID                                 : isom\nFile size                                : 3.74 GiB\nDuration                                 : 2h 27mn\nOverall bit rate mode                    : Variable\nOverall bit rate                         : 3 644 Kbps\nEncoded date                             : UTC 2012-11-21 19:38:42\n\nVideo\nID                                       : 1\nFormat                                   : AVC\nFormat/Info                              : Advanced Video Codec\nFormat profile                           : &lt;a class=&quot;__cf_email__&quot; href=&quot;/cdn-cgi/l/email-protection&quot; data-cfemail=&quot;f5bd9c929db5b9c1dbc4&quot;&gt;[email&amp;#160;protected]&lt;/a&gt;&lt;script cf-hash='f9e31' type=&quot;text/javascript&quot;&gt;\n/* &lt;![CDATA[ */!function(){try{var t=&quot;currentScript&quot;in document?document.currentScript:function(){for(var t=document.getElementsByTagName(&quot;script&quot;),e=t.length;e--;)if(t[e].getAttribute(&quot;cf-hash&quot;))return t[e]}();if(t&amp;&amp;t.previousSibling){var e,r,n,i,c=t.previousSibling,a=c.getAttribute(&quot;data-cfemail&quot;);if(a){for(e=&quot;&quot;,r=parseInt(a.substr(0,2),16),n=2;a.length-n;n+=2)i=parseInt(a.substr(n,2),16)^r,e+=String.fromCharCode(i);e=document.createTextNode(e),c.parentNode.replaceChild(e,c)}}}catch(u){}}();/* ]]&gt; */&lt;/script&gt;\nFormat settings, CABAC                   : Yes\nFormat settings, ReFrames                : 5 frames\nCodec ID                                 : avc1\nCodec ID/Info                            : Advanced Video Coding\nDuration                                 : 2h 27mn\nBit rate                                 : 3 280 Kbps\nMaximum bit rate                         : 22.8 Mbps\nWidth                                    : 1 280 pixels\nHeight                                   : 528 pixels\nDisplay aspect ratio                     : 2.40:1\nFrame rate mode                          : Variable\nFrame rate                               : 23.976 fps\nMinimum frame rate                       : 15.932 fps\nMaximum frame rate                       : 24.390 fps\nColor space                              : YUV\nChroma subsampling                       : 4:2:0\nBit depth                                : 8 bits\nScan type                                : Progressive\nBits/(Pixel*Frame)                       : 0.202\nStream size                              : 3.34 GiB (89%)\nWriting library                          : x264 core 112\n\nAudio\nID                                       : 2\nFormat                                   : AAC\nFormat/Info                              : Advanced Audio Codec\nFormat profile                           : LC\nCodec ID                                 : 40\nDuration                                 : 2h 27mn\nBit rate mode                            : Variable\nBit rate                                 : 384 Kbps\nMaximum bit rate                         : 669 Kbps\nChannel(s)                               : 6 channels\nChannel positions                        : Front: L C R, Side: L R, LFE\nSampling rate                            : 48.0 KHz\nCompression mode                         : Lossy\nDelay relative to video                  : 83ms\nStream size                              : 404 MiB (11%)\nLanguage                                 : English\n\nEnjoy...\n\nRequested by SantaClaus LOL\n\nComing soon: The Gold Rush, Buffalo 66, The Polar Express and more...","torrent":{"xt":"urn:btih:2ba2cf6cdfa920721f5acc0b72bb309ecd77a2c5","amp;dn":"Donnie+Brasco-720p+MP4+AAC+x264+Extended+Cut+BRRip+1997-CC","amp;tr":["udp%3A%2F%2Ftracker.openbittorrent.com%3A80","udp%3A%2F%2Fopen.demonii.com%3A1337","udp%3A%2F%2Ftracker.coppersurfer.tk%3A6969","udp%3A%2F%2Fexodus.desync.com%3A6969"],"infoHash":"2ba2cf6cdfa920721f5acc0b72bb309ecd77a2c5","infoHashBuffer":{"type":"Buffer","data":[43,162,207,108,223,169,32,114,31,90,204,11,114,187,48,158,205,119,162,197]},"announce":[],"urlList":[]}}